<svg width="105" height="50" viewBox="0 0 105 50" fill="none" xmlns="http://www.w3.org/2000/svg">
    <g filter="url(#filter0_d_596_53808)">
        <path
            d="M91.8261 41H12.9565C12.9565 39.9551 12.7507 38.9205 12.3509 37.9552C11.951 36.9898 11.3649 36.1127 10.6261 35.3739C9.88728 34.6351 9.01016 34.049 8.04483 33.6491C7.0795 33.2493 6.04487 33.0435 5 33.0435V8.95652C6.04487 8.95652 7.0795 8.75072 8.04483 8.35087C9.01016 7.95101 9.88728 7.36494 10.6261 6.62611C11.3649 5.88728 11.951 5.01016 12.3509 4.04483C12.7507 3.0795 12.9565 2.04487 12.9565 1H91.8261C91.8261 3.1102 92.6644 5.13397 94.1565 6.62611C95.6486 8.11825 97.6724 8.95652 99.7826 8.95652V33.0435C97.6724 33.0435 95.6486 33.8818 94.1565 35.3739C92.6644 36.866 91.8261 38.8898 91.8261 41Z"
            fill="#FCF2DA" stroke="#145571" stroke-miterlimit="10" />
        <path
            d="M15.2434 38.3913C14.7708 36.5518 13.813 34.8729 12.47 33.53C11.127 32.187 9.44814 31.2292 7.60864 30.7565V11.2435C9.44814 10.7708 11.127 9.81301 12.47 8.47003C13.813 7.12706 14.7708 5.44819 15.2434 3.6087H89.5391C90.0117 5.44819 90.9695 7.12706 92.3125 8.47003C93.6555 9.81301 95.3344 10.7708 97.1739 11.2435V30.7565C95.3344 31.2292 93.6555 32.187 92.3125 33.53C90.9695 34.8729 90.0117 36.5518 89.5391 38.3913H15.2434Z"
            stroke="#145571" stroke-width="0.75" stroke-miterlimit="10" />
    </g>
    <defs>
        <filter id="filter0_d_596_53808" x="0.5" y="0.5" width="103.783" height="49" filterUnits="userSpaceOnUse"
            color-interpolation-filters="sRGB">
            <feFlood flood-opacity="0" result="BackgroundImageFix" />
            <feColorMatrix in="SourceAlpha" type="matrix" values="0 0 0 0 0 0 0 0 0 0 0 0 0 0 0 0 0 0 127 0"
                result="hardAlpha" />
            <feOffset dy="4" />
            <feGaussianBlur stdDeviation="2" />
            <feComposite in2="hardAlpha" operator="out" />
            <feColorMatrix type="matrix" values="0 0 0 0 0 0 0 0 0 0 0 0 0 0 0 0 0 0 0.25 0" />
            <feBlend mode="normal" in2="BackgroundImageFix" result="effect1_dropShadow_596_53808" />
            <feBlend mode="normal" in="SourceGraphic" in2="effect1_dropShadow_596_53808" result="shape" />
        </filter>
    </defs>
</svg>